# xmcd CD database file
#
# Track frame offsets:
#	150
#	15209
#	29120
#	41224
#	53948
#	68454
#	82165
#	96302
#	110791
#	124565
#	138726
#	154968
#	167402
#	176612
#	191241
#	203118
#	217236
#	231331
#	245036
#	254557
#	265479
#	280623
#	294277
#	309335
#	324770
#	344225
#
# Disc length: 4766 seconds
#
# Revision: 0
# Processed by: cddbd v1.5.2PL0 Copyright (c) Steve Scherf et al.
# Submitted via: CDex 1.51
#
DISCID=97129c1a
DTITLE=Stan kenton - Artistry in Rhythm
DYEAR=2007
DGENRE=Jazz
TTITLE0=Artistry in Rhythm
TTITLE1=Come back to Sorrento
TTITLE2=Fantasy
TTITLE3=Opus in pastels
TTITLE4=Artistry in percussion
TTITLE5=Ain´t no misery in me
TTITLE6=Safranski
TTITLE7=Willow weep on me
TTITLE8=Artistry in bolero
TTITLE9=And her tears flowed like wine
TTITLE10=peg O´ My Heart
TTITLE11=Tampico
TTITLE12=Capitol Punishment
TTITLE13=He´s funny that way
TTITLE14=Shoo fly pie and aplle pan dowdy
TTITLE15=Somnambulism
TTITLE16=Abstraction
TTITLE17=Chorale for brass, piano and bongo
TTITLE18=Bongo riff
TTITLE19=The spider and the fly
TTITLE20=September song
TTITLE21=Jump for Joe
TTITLE22=Laura
TTITLE23=Spring is here
TTITLE24=I´m glad there is you
TTITLE25=Opus in Turquoise
EXTD=YEAR: 2007
EXTT0=
EXTT1=
EXTT2=
EXTT3=
EXTT4=
EXTT5=
EXTT6=
EXTT7=
EXTT8=
EXTT9=
EXTT10=
EXTT11=
EXTT12=
EXTT13=
EXTT14=
EXTT15=
EXTT16=
EXTT17=
EXTT18=
EXTT19=
EXTT20=
EXTT21=
EXTT22=
EXTT23=
EXTT24=
EXTT25=
PLAYORDER=
